<svg width="173" height="34" viewBox="0 0 173 34" fill="none" xmlns="http://www.w3.org/2000/svg">
<path fill-rule="evenodd" clip-rule="evenodd" d="M17 34C26.3888 34 34 26.3888 34 17C34 7.61116 26.3888 0 17 0C7.61116 0 0 7.61116 0 17C0 26.3888 7.61116 34 17 34ZM16.7572 26.7143C22.2563 26.7143 26.7143 22.2563 26.7143 16.7572C26.7143 11.258 22.2563 6.80001 16.7572 6.80001C11.258 6.80001 6.80001 11.258 6.80001 16.7572C6.80001 22.2563 11.258 26.7143 16.7572 26.7143Z" fill="#146FF8"/>
<path d="M55.536 13.136V15.206H59.586V17.888H55.536V20.174H60.126V23H52.008V10.31H60.126V13.136H55.536ZM61.2933 17.942C61.2933 16.898 61.5093 15.986 61.9413 15.206C62.3733 14.426 62.9733 13.826 63.7413 13.406C64.5213 12.986 65.4093 12.776 66.4053 12.776C67.6893 12.776 68.7693 13.13 69.6453 13.838C70.5213 14.534 71.0853 15.512 71.3373 16.772H67.5933C67.3773 16.112 66.9573 15.782 66.3333 15.782C65.8893 15.782 65.5353 15.968 65.2713 16.34C65.0193 16.7 64.8933 17.234 64.8933 17.942C64.8933 18.65 65.0193 19.19 65.2713 19.562C65.5353 19.934 65.8893 20.12 66.3333 20.12C66.9693 20.12 67.3893 19.79 67.5933 19.13H71.3373C71.0853 20.378 70.5213 21.356 69.6453 22.064C68.7693 22.772 67.6893 23.126 66.4053 23.126C65.4093 23.126 64.5213 22.916 63.7413 22.496C62.9733 22.076 62.3733 21.476 61.9413 20.696C61.5093 19.916 61.2933 18.998 61.2933 17.942ZM77.5009 23.126C76.4929 23.126 75.5869 22.916 74.7829 22.496C73.9909 22.076 73.3669 21.476 72.9109 20.696C72.4549 19.916 72.2269 18.998 72.2269 17.942C72.2269 16.898 72.4549 15.986 72.9109 15.206C73.3789 14.426 74.0089 13.826 74.8009 13.406C75.6049 12.986 76.5109 12.776 77.5189 12.776C78.5269 12.776 79.4269 12.986 80.2189 13.406C81.0229 13.826 81.6529 14.426 82.1089 15.206C82.5769 15.986 82.8109 16.898 82.8109 17.942C82.8109 18.986 82.5769 19.904 82.1089 20.696C81.6529 21.476 81.0229 22.076 80.2189 22.496C79.4149 22.916 78.5089 23.126 77.5009 23.126ZM77.5009 20.066C77.9929 20.066 78.4009 19.886 78.7249 19.526C79.0609 19.154 79.2289 18.626 79.2289 17.942C79.2289 17.258 79.0609 16.736 78.7249 16.376C78.4009 16.016 77.9989 15.836 77.5189 15.836C77.0389 15.836 76.6369 16.016 76.3129 16.376C75.9889 16.736 75.8269 17.258 75.8269 17.942C75.8269 18.638 75.9829 19.166 76.2949 19.526C76.6069 19.886 77.0089 20.066 77.5009 20.066ZM97.4403 12.812C98.7123 12.812 99.7083 13.196 100.428 13.964C101.16 14.732 101.526 15.782 101.526 17.114V23H97.9983V17.582C97.9983 17.042 97.8483 16.622 97.5483 16.322C97.2483 16.022 96.8403 15.872 96.3243 15.872C95.8083 15.872 95.4003 16.022 95.1003 16.322C94.8003 16.622 94.6503 17.042 94.6503 17.582V23H91.1223V17.582C91.1223 17.042 90.9723 16.622 90.6723 16.322C90.3843 16.022 89.9823 15.872 89.4663 15.872C88.9383 15.872 88.5243 16.022 88.2243 16.322C87.9243 16.622 87.7743 17.042 87.7743 17.582V23H84.2463V12.902H87.7743V14.234C88.0863 13.802 88.4883 13.46 88.9803 13.208C89.4843 12.944 90.0603 12.812 90.7083 12.812C91.4523 12.812 92.1123 12.974 92.6883 13.298C93.2763 13.622 93.7383 14.078 94.0743 14.666C94.4343 14.114 94.9083 13.67 95.4963 13.334C96.0843 12.986 96.7323 12.812 97.4403 12.812ZM118.273 10.31V23H114.745V15.998L112.351 23H109.399L106.987 15.944V23H103.459V10.31H107.725L110.911 18.554L114.025 10.31H118.273ZM129.929 17.834C129.929 18.11 129.911 18.386 129.875 18.662H123.197C123.233 19.214 123.383 19.628 123.647 19.904C123.923 20.168 124.271 20.3 124.691 20.3C125.279 20.3 125.699 20.036 125.951 19.508H129.713C129.557 20.204 129.251 20.828 128.795 21.38C128.351 21.92 127.787 22.346 127.103 22.658C126.419 22.97 125.663 23.126 124.835 23.126C123.839 23.126 122.951 22.916 122.171 22.496C121.403 22.076 120.797 21.476 120.353 20.696C119.921 19.916 119.705 18.998 119.705 17.942C119.705 16.886 119.921 15.974 120.353 15.206C120.785 14.426 121.385 13.826 122.153 13.406C122.933 12.986 123.827 12.776 124.835 12.776C125.831 12.776 126.713 12.98 127.481 13.388C128.249 13.796 128.849 14.384 129.281 15.152C129.713 15.908 129.929 16.802 129.929 17.834ZM126.329 16.952C126.329 16.52 126.185 16.184 125.897 15.944C125.609 15.692 125.249 15.566 124.817 15.566C124.385 15.566 124.031 15.686 123.755 15.926C123.479 16.154 123.299 16.496 123.215 16.952H126.329ZM137.331 19.994V23H135.801C133.221 23 131.931 21.722 131.931 19.166V15.836H130.689V12.902H131.931V10.454H135.477V12.902H137.313V15.836H135.477V19.22C135.477 19.496 135.537 19.694 135.657 19.814C135.789 19.934 136.005 19.994 136.305 19.994H137.331ZM142.477 14.684C142.873 14.108 143.353 13.652 143.917 13.316C144.481 12.98 145.087 12.812 145.735 12.812V16.574H144.745C143.977 16.574 143.407 16.724 143.035 17.024C142.663 17.324 142.477 17.846 142.477 18.59V23H138.949V12.902H142.477V14.684ZM148.782 11.966C148.158 11.966 147.654 11.798 147.27 11.462C146.898 11.114 146.712 10.682 146.712 10.166C146.712 9.638 146.898 9.2 147.27 8.852C147.654 8.504 148.158 8.33 148.782 8.33C149.394 8.33 149.886 8.504 150.258 8.852C150.642 9.2 150.834 9.638 150.834 10.166C150.834 10.682 150.642 11.114 150.258 11.462C149.886 11.798 149.394 11.966 148.782 11.966ZM150.528 12.902V23H147V12.902H150.528ZM151.961 17.942C151.961 16.898 152.177 15.986 152.609 15.206C153.041 14.426 153.641 13.826 154.409 13.406C155.189 12.986 156.077 12.776 157.073 12.776C158.357 12.776 159.437 13.13 160.313 13.838C161.189 14.534 161.753 15.512 162.005 16.772H158.261C158.045 16.112 157.625 15.782 157.001 15.782C156.557 15.782 156.203 15.968 155.939 16.34C155.687 16.7 155.561 17.234 155.561 17.942C155.561 18.65 155.687 19.19 155.939 19.562C156.203 19.934 156.557 20.12 157.001 20.12C157.637 20.12 158.057 19.79 158.261 19.13H162.005C161.753 20.378 161.189 21.356 160.313 22.064C159.437 22.772 158.357 23.126 157.073 23.126C156.077 23.126 155.189 22.916 154.409 22.496C153.641 22.076 153.041 21.476 152.609 20.696C152.177 19.916 151.961 18.998 151.961 17.942ZM167.773 23.126C166.861 23.126 166.045 22.976 165.325 22.676C164.617 22.364 164.053 21.944 163.633 21.416C163.225 20.876 162.997 20.27 162.949 19.598H166.369C166.417 19.922 166.567 20.174 166.819 20.354C167.071 20.534 167.383 20.624 167.755 20.624C168.043 20.624 168.271 20.564 168.439 20.444C168.607 20.324 168.691 20.168 168.691 19.976C168.691 19.724 168.553 19.538 168.277 19.418C168.001 19.298 167.545 19.166 166.909 19.022C166.189 18.878 165.589 18.716 165.109 18.536C164.629 18.356 164.209 18.062 163.849 17.654C163.501 17.246 163.327 16.694 163.327 15.998C163.327 15.398 163.489 14.858 163.813 14.378C164.137 13.886 164.611 13.496 165.235 13.208C165.871 12.92 166.633 12.776 167.521 12.776C168.841 12.776 169.879 13.1 170.635 13.748C171.391 14.396 171.829 15.248 171.949 16.304H168.763C168.703 15.98 168.559 15.734 168.331 15.566C168.115 15.386 167.821 15.296 167.449 15.296C167.161 15.296 166.939 15.35 166.783 15.458C166.639 15.566 166.567 15.716 166.567 15.908C166.567 16.148 166.705 16.334 166.981 16.466C167.257 16.586 167.701 16.712 168.313 16.844C169.045 17 169.651 17.174 170.131 17.366C170.623 17.558 171.049 17.87 171.409 18.302C171.781 18.722 171.967 19.298 171.967 20.03C171.967 20.618 171.793 21.146 171.445 21.614C171.109 22.082 170.623 22.454 169.987 22.73C169.363 22.994 168.625 23.126 167.773 23.126Z" fill="#146FF8"/>
</svg>
